<svg width="490" height="492" viewBox="0 0 490 492" fill="none" xmlns="http://www.w3.org/2000/svg">
<path d="M89 266.9C87.3 266.9 85.6 266.8 83.9 266.7C59.7 264.9 31.3 249.5 23.8 211.7C21.6 200.8 23.1 189.8 24.5 179.2C27.5 156.3 28.1 145.7 9.9 135.5C0.699997 130.4 -2.49999 118.8 2.60001 109.6C7.70001 100.4 19.3 97.2001 28.5 102.3C46.6 112.4 57.9 126.4 62.1 143.9C65.6 158.2 63.8 171.9 62.2 184.1C61.2 192 60.2 199.4 61.1 204.3C62.5 211.2 67.7 227.3 86.7 228.7C94.5 229.3 100.9 226.7 106.5 220.8C111.7 215.2 114.8 207.9 115.5 203.5C117.1 193.1 126.8 186 137.2 187.6C147.6 189.2 154.7 198.9 153.1 209.3C149.4 233.9 127.1 266.9 89 266.9Z" fill="#7F52FF"/>
<path d="M57.8 380.3C52.9 380.3 48.1 378.4 44.4 374.7C37 367.3 37 355.3 44.4 347.8L67 325.2C70.6 321.6 75.4 319.6 80.4 319.6C85.4 319.6 90.3 321.6 93.8 325.2C111.2 342.6 143.7 344.9 166.6 339.7C187.7 334.9 225.8 318.6 244.7 264.1C248.1 254.2 258.9 248.9 268.9 252.4C278.8 255.8 284.1 266.6 280.6 276.6C270.9 304.6 256 327.6 236.3 345.2C218.9 360.7 197.8 371.6 175.1 376.8C141.9 384.4 106.8 379.2 82 364L71.2 374.8C67.6 378.5 62.7 380.3 57.8 380.3Z" fill="#7F52FF"/>
<path d="M286.8 491.6H253.7C247.9 491.6 242.5 489 238.9 484.5C235.3 480 233.9 474.1 235.2 468.4L281.6 264.2C283.9 254 294.1 247.6 304.3 249.9C314.5 252.2 320.9 262.4 318.6 272.6L277.5 453.6H286.8C297.3 453.6 305.8 462.1 305.8 472.6C305.8 483.1 297.3 491.6 286.8 491.6Z" fill="#7F52FF"/>
<path d="M155.1 297.4L412 279.4C432 278 447.1 260.6 445.7 240.6L431.5 37.5001C429.2 5.0001 390.8 -10.9999 366.1 10.2001L278.2 86.0001C273.2 90.3001 266 90.8001 260.5 87.2001L163.1 24.5001C135.7 6.80009 99.8 28.0001 102.1 60.6001L116.3 263.7C117.8 283.7 135.1 298.8 155.1 297.4Z" fill="#7F52FF"/>
<path d="M399.5 260.7L165.3 277C149.9 278.1 136.5 266.4 135.4 251L128.2 147.3C127.1 131.9 138.8 118.5 154.2 117.4L388.4 101.1C403.8 100 417.2 111.7 418.3 127.1L425.5 230.8C426.5 246.3 414.9 259.7 399.5 260.7Z" fill="black"/>
<path d="M217.1 153.7C234.1 153.7 248.2 167 249.4 183.9C250 192.5 247.2 200.9 241.5 207.4C235.8 213.9 227.9 217.9 219.3 218.5C218.5 218.6 217.8 218.6 217 218.6C200 218.6 185.8 205.3 184.7 188.4C184.1 179.8 186.9 171.4 192.6 164.9C198.3 158.4 206.2 154.4 214.8 153.8C215.5 153.7 216.3 153.7 217.1 153.7ZM217.1 135.7C215.9 135.7 214.8 135.7 213.6 135.8C185.8 137.7 164.8 161.8 166.7 189.6C168.5 216.2 190.7 236.6 217 236.6C218.2 236.6 219.3 236.6 220.5 236.5C248.3 234.6 269.3 210.5 267.4 182.7C265.5 156.1 243.3 135.7 217.1 135.7Z" fill="white"/>
<path d="M335.7 145.5C352.7 145.5 366.8 158.8 368 175.7C368.6 184.3 365.8 192.7 360.1 199.2C354.4 205.7 346.5 209.7 337.9 210.3C337.1 210.4 336.4 210.4 335.6 210.4C318.6 210.4 304.4 197.1 303.3 180.2C302.7 171.6 305.5 163.2 311.2 156.7C316.9 150.2 324.8 146.2 333.4 145.6C334.2 145.6 335 145.5 335.7 145.5ZM335.7 127.5C334.5 127.5 333.4 127.5 332.2 127.6C304.4 129.5 283.4 153.6 285.3 181.4C287.1 208 309.3 228.4 335.6 228.4C336.8 228.4 337.9 228.4 339.1 228.3C366.9 226.4 387.9 202.3 386 174.5C384.2 147.9 362 127.5 335.7 127.5Z" fill="white"/>
<path d="M258.2 240.9C265.2 243.7 273.2 244.4 280.6 243.7C288.4 243 296.2 241.1 302.9 237C304.9 235.8 305.9 232.9 304.5 230.8C303.2 228.8 300.5 227.9 298.3 229.2C296.9 230.1 295.4 230.8 293.8 231.5C294.5 231.2 294 231.4 293.6 231.6C293.2 231.8 292.7 231.9 292.3 232.1C291.5 232.4 290.7 232.6 289.9 232.9C288.2 233.4 286.5 233.8 284.8 234.1C284.3 234.2 283.8 234.3 283.3 234.4C283.2 234.4 281.9 234.6 283 234.5C282.1 234.6 281.1 234.7 280.2 234.8C276.6 235.1 273.1 235 269.5 234.6C268.6 234.5 270.3 234.7 269.1 234.5C268.7 234.4 268.3 234.4 267.9 234.3C267.1 234.2 266.3 234 265.5 233.8C263.9 233.4 262.2 232.9 260.7 232.2C258.5 231.3 255.7 233.2 255.2 235.3C254.5 238 255.9 240 258.2 240.9Z" fill="white"/>
<path d="M454.833 254.177L378.761 214.064L303.666 356.478L407.602 411.283L468.004 296.733L454.833 254.177Z" fill="white" stroke="black"/>
<path d="M471.882 294.802L459.353 254.322C458.68 252.142 457.194 250.355 455.177 249.291L384.429 211.986C380.261 209.788 375.083 211.39 372.885 215.559L301.986 350.017C299.788 354.185 301.39 359.363 305.559 361.561L402.809 412.841C406.977 415.039 412.157 413.437 414.355 409.269L471.279 301.315C472.343 299.296 472.557 296.981 471.882 294.802ZM455.279 260.222L465.186 292.234L446.349 282.302C445.179 281.685 444.731 280.231 445.348 279.061L455.279 260.222ZM405.438 407.855L308.188 356.575C306.768 355.826 306.223 354.065 306.971 352.646L377.871 218.188C378.62 216.768 380.381 216.223 381.8 216.971L452.154 254.069L440.362 276.432C438.295 280.351 439.801 285.221 443.72 287.287L466.085 299.08L409.369 406.64C408.621 408.059 406.857 408.603 405.438 407.855Z" fill="black"/>
<path d="M442.401 313.325L398.551 290.203C397.173 289.476 396.646 287.773 397.372 286.395C398.099 285.018 399.802 284.49 401.18 285.217L445.03 308.339C446.406 309.065 446.935 310.769 446.209 312.147C445.482 313.524 443.777 314.051 442.401 313.325Z" fill="black"/>
<path d="M386.332 283.76L365.31 272.675C363.933 271.949 363.405 270.245 364.132 268.868C364.858 267.49 366.562 266.963 367.939 267.689L388.961 278.774C390.339 279.501 390.866 281.204 390.14 282.581C389.413 283.959 387.71 284.486 386.332 283.76Z" fill="black"/>
<path d="M410.395 269.715L376.34 251.758C374.962 251.031 374.435 249.328 375.162 247.95C375.888 246.573 377.591 246.045 378.969 246.772L413.026 264.73C414.403 265.456 414.93 267.16 414.204 268.537C413.477 269.915 411.773 270.441 410.395 269.715Z" fill="black"/>
<path d="M432.762 331.606L355.671 290.956C354.293 290.23 353.766 288.527 354.492 287.149C355.219 285.771 356.922 285.244 358.3 285.971L435.392 326.622C436.768 327.347 437.297 329.051 436.571 330.429C435.844 331.807 434.138 332.332 432.762 331.606Z" fill="black"/>
<path d="M389.88 332.359L346.031 309.238C344.653 308.511 344.127 306.806 344.852 305.43C345.578 304.054 347.282 303.525 348.66 304.252L392.51 327.374C393.886 328.1 394.414 329.806 393.689 331.182C392.963 332.558 391.257 333.086 389.88 332.359Z" fill="black"/>
<path d="M423.122 349.888L402.1 338.803C400.724 338.077 400.196 336.372 400.921 334.996C401.647 333.619 403.353 333.092 404.729 333.817L425.751 344.902C427.127 345.628 427.655 347.333 426.929 348.709C426.204 350.086 424.498 350.614 423.122 349.888Z" fill="black"/>
<path d="M413.482 368.169L336.391 327.519C335.013 326.793 334.487 325.088 335.213 323.712C335.938 322.336 337.642 321.807 339.02 322.533L416.113 363.184C417.489 363.91 418.017 365.616 417.291 366.992C416.565 368.368 414.858 368.895 413.482 368.169Z" fill="black"/>
<path d="M403.842 386.451L382.82 375.366C381.444 374.64 380.916 372.934 381.642 371.558C382.367 370.182 384.073 369.654 385.449 370.38L406.471 381.465C407.847 382.19 408.375 383.896 407.65 385.272C406.924 386.648 405.218 387.176 403.842 386.451Z" fill="black"/>
<path d="M447.2 388.1C442.3 388.1 437.5 386.2 433.8 382.5L415.1 363.8C407.7 356.4 407.7 344.3 415.1 336.9C422.5 329.5 434.6 329.5 442 336.9L460.7 355.6C468.1 363 468.1 375.1 460.7 382.5C457 386.2 452.1 388.1 447.2 388.1Z" fill="#7F52FF"/>
</svg>
